<svg width="72" height="72" viewBox="0 0 72 72" fill="none" xmlns="http://www.w3.org/2000/svg">
<path d="M58.7297 21.7378H13.0047C12.4504 21.7378 12 20.9532 12 19.9878C12 19.0223 12.4504 18.2378 13.0047 18.2378H58.7297C59.2839 18.2378 59.7343 19.0223 59.7343 19.9878C59.7343 20.9532 59.2839 21.7378 58.7297 21.7378Z" fill="#56F2C3"/>
<path d="M58.7297 38.4953H13.0047C12.4504 38.4953 12 37.7108 12 36.7453C12 35.7799 12.4504 34.9953 13.0047 34.9953H58.7297C59.2839 34.9953 59.7343 35.7799 59.7343 36.7453C59.7343 37.7108 59.2839 38.4953 58.7297 38.4953Z" fill="#56F2C3"/>
<path d="M58.7297 55.2529H13.0047C12.4504 55.2529 12 54.4683 12 53.5029C12 52.5375 12.4504 51.7529 13.0047 51.7529H58.7297C59.2839 51.7529 59.7343 52.5375 59.7343 53.5029C59.7343 54.4683 59.2839 55.2529 58.7297 55.2529Z" fill="#56F2C3"/>
</svg>
